<svg xmlns="http://www.w3.org/2000/svg" viewBox="0 0 128 128">
<g fill-rule="evenodd" clip-rule="evenodd">
<path fill="#386f9f" 
d="M51.834 23.017c3.756 0 7.512.058 11.263-.04.995-.026 2.78.797 
2.7-1.271-.061-1.683-1.622-1.074-2.568-1.089-4.237-.067-8.488-.228
-12.708.037-3.003.187-3.888-.953-3.511-3.707.13-.95.005-1.934.025
-2.902.132-6.446 1.69-8.64 7.942-10.23 6.888-1.75 13.937-1.692 20.806
-.184 6.175 1.356 8.74 6.16 8.428 10.604-.38 5.423-.086 10.893-.091 
16.343-.009 6.853-3.55 10.49-10.459 10.585-5.69.078-11.387.14-17.074
-.018-6.778-.19-11.75 5.44-11.784 11.82 0 .484.083.984-.013 1.451
-.488 2.343 1.462 6.13-1.022 6.826-3.78 1.062-8.206 1.062-11.54
-2.311-1.13-1.14-2.082-2.417-2.584-3.893-2.679-7.865-3.102
-15.83-.58-23.818 1.572-4.986 5.848-8.087 11.145-8.176 3.874
-.065 7.749-.013 11.623-.013l.002-.014zm6.902-11.12c-.162
-1.903-1.185-3.292-3.296-3.35-2.309-.06-3.502 1.336-3.505 
3.608-.002 2.106 1.145 3.455 3.241 3.516 2.303.067 3.418-1.36 3.56-3.774z"/>
<path fill="#ffcf46" d="M80.824 61.572c-4.24 0-8.482-.037
-12.722.03-.955.012-2.557-.592-2.607 1.041-.056 1.852 
1.663 1.37 2.755 1.381 4.24.053 8.484.098 12.723-.02 
2.178-.06 3.067.357 3.23 2.925.737 11.625-4.308 12.63-13.613 
14.745-5.338 1.213-11.061.57-16.325-1.788-4.353-1.947-7.024
-4.753-6.687-10.007.334-5.186.39-10.439-.009-15.62-.48-6.253 
3.41-10.852 10.975-10.854 5.09-.001 10.214-.389 15.26.075 7.215.662 
12.872-5.592 13.12-12.864.01-.241-.052-.5.01-.724.636-2.235-1.626-5.557 
1.4-6.686 4.573-1.705 9.73.087 12.066 3.557 2.945 4.369 3.343 9.51 3.819 
14.53.515 5.411-1.003 10.505-3.276 15.386-1.544 3.31-4.14 4.91-7.757 
4.915-4.12.003-8.239 0-12.36 0-.002-.008-.002-.015-.002-.022zm-1.104 
10.8c-.453-2.066-1.385-3.476-3.785-3.535-2.496-.06-3.14 1.807-3.127 
3.474.014 1.772.508 3.952 3.21 3.748 2.246-.172 3.341-1.563 3.702-3.687z"/>
</g>
</svg>